<svg width="11" height="13" viewBox="0 0 11 13" fill="#fff" xmlns="http://www.w3.org/2000/svg">
<path d="M4.08333 12.25L3.79167 7L1.93958 5.93542L1.73542 6.69375L2.91667 8.75L1.91042 9.33333L0.466667 6.85417L1.16667 4.34583L4.52083 2.42083L2.91667 0.816667L3.73333 0L6.41667 2.66875L4.31667 3.87917L5.01667 4.49167L9.8 0.583333L10.5 1.4L5.54167 6.41667L5.25 12.25H4.08333ZM1.16667 3.5C0.845833 3.5 0.571181 3.38576 0.342708 3.15729C0.114236 2.92882 0 2.65417 0 2.33333C0 2.0125 0.114236 1.73785 0.342708 1.50937C0.571181 1.2809 0.845833 1.16667 1.16667 1.16667C1.4875 1.16667 1.76215 1.2809 1.99063 1.50937C2.2191 1.73785 2.33333 2.0125 2.33333 2.33333C2.33333 2.65417 2.2191 2.92882 1.99063 3.15729C1.76215 3.38576 1.4875 3.5 1.16667 3.5Z" fill="#777777"/>
</svg>
