<svg width="12" height="10" viewBox="0 0 12 10" fill="none" xmlns="http://www.w3.org/2000/svg">
<path fill-rule="evenodd" clip-rule="evenodd" d="M7.31526 0.404871C7.12252 0.6273 6.17635 1.69896 5.21267 2.78637C4.24898 3.87369 3.42363 4.81273 3.3786 4.87296C3.32481 4.94493 3.33987 5.03965 3.4224 5.14862C3.62714 5.41903 7.10535 9.34437 7.44299 9.68601L7.7533 10L9.87665 9.97759L12 9.95518L10.8544 8.62227C10.2243 7.88917 9.26129 6.76894 8.71436 6.13281L7.72001 4.97617L8.34991 4.25174C8.69631 3.85319 9.33217 3.11784 9.76285 2.6175C10.1935 2.11716 10.8248 1.38914 11.1657 0.999683C11.5066 0.610223 11.8391 0.225928 11.9046 0.145787C12.0173 0.00783086 11.907 1.17964e-06 9.84467 0.000167794L7.66569 0.000416941L7.31526 0.404871Z" fill="#FCDC00"/>
<path fill-rule="evenodd" clip-rule="evenodd" d="M0 4.99842V9.99683H1.79596H3.59192V8.79646V7.59609L2.78155 6.69205C2.3358 6.19479 1.81865 5.61039 1.63213 5.39329L1.29318 4.99858L1.51325 4.72775C1.63424 4.5788 2.15147 3.99149 2.66258 3.42267L3.59192 2.38841V1.19421V0H1.79596H0V4.99842Z" fill="#FCDC00"/>
</svg>
