<svg width="24" height="24" viewBox="0 0 24 24" fill="none" xmlns="http://www.w3.org/2000/svg">
<path fill-rule="evenodd" clip-rule="evenodd" d="M8.76905 1.34C5.96723 1.74781 3.53836 3.47923 2.2335 5.99895C0.971108 8.43664 0.932811 11.3373 2.13042 13.8047C3.45576 16.5352 6.11831 18.3966 9.13387 18.701C10.5878 18.8477 12.1567 18.6014 13.4419 18.0247L13.7204 17.8997L14.0015 18.196C14.1561 18.3589 14.9618 19.2304 15.792 20.1328C16.6222 21.0351 17.4217 21.8757 17.5687 22.0006C18.5655 22.8481 20.0914 22.9748 21.2239 22.3041C21.8123 21.9556 22.3672 21.2572 22.5955 20.5781C22.7403 20.1472 22.7724 19.3942 22.6663 18.9173C22.5638 18.4568 22.2903 17.9134 21.9753 17.5449C21.8385 17.3848 20.9988 16.5852 20.1094 15.7681C19.2199 14.9509 18.3595 14.1565 18.1974 14.0028L17.9027 13.7231L18.0649 13.342C19.0423 11.0457 18.9553 8.36834 17.8302 6.1227C17.3925 5.2489 16.9755 4.65631 16.3134 3.96715C14.9088 2.50507 13.1305 1.59579 11.1635 1.33395C10.5441 1.25145 9.35658 1.2545 8.76905 1.34ZM9.11719 2.7979C6.68981 3.11253 4.55381 4.6406 3.49462 6.82029C2.9977 7.84292 2.81634 8.59301 2.78048 9.77342C2.75873 10.4908 2.76928 10.7014 2.85103 11.1797C3.30094 13.8118 5.12517 15.9737 7.63303 16.8467C8.46628 17.1367 9.0353 17.2257 10.0312 17.2221C10.7408 17.2195 10.9879 17.1999 11.3906 17.1144C12.8681 16.8009 14.0922 16.1443 15.1172 15.1154C16.1469 14.0818 16.803 12.8583 17.1144 11.3906C17.2671 10.6714 17.2693 9.38239 17.1193 8.63773C16.5174 5.65132 14.1802 3.36429 11.2112 2.85673C10.7127 2.77151 9.56869 2.73935 9.11719 2.7979ZM9.66909 5.34809C9.12455 5.61767 9.12492 6.39382 9.66975 6.64789C9.78956 6.70381 10.0188 6.75054 10.2527 6.76685C10.6879 6.79718 11.2341 6.96307 11.625 7.18353C12.0133 7.40257 12.6497 8.06515 12.852 8.46092C13.0864 8.91945 13.1651 9.18884 13.2385 9.78373C13.3096 10.3594 13.3664 10.4809 13.6349 10.6317C14.0051 10.8398 14.431 10.725 14.6459 10.3592C14.7253 10.224 14.7405 10.1255 14.7328 9.79685C14.7019 8.49167 14.0269 7.15001 12.9793 6.31189C12.3271 5.79003 11.4536 5.40692 10.6724 5.30014C10.13 5.22598 9.89297 5.23728 9.66909 5.34809ZM16.7401 15.5583C16.3269 16.0584 15.956 16.4232 15.4235 16.8535C15.2402 17.0015 15.0964 17.1388 15.1038 17.1585C15.1111 17.1783 15.7183 17.845 16.453 18.6402C18.9232 21.3137 18.7986 21.2108 19.5703 21.2109C19.9794 21.2109 20.0727 21.1951 20.3038 21.0868C20.6286 20.9345 20.9087 20.6616 21.077 20.3336C21.1777 20.1374 21.2082 20.0031 21.2237 19.6875C21.2483 19.188 21.1385 18.862 20.83 18.5189C20.6223 18.2879 17.2281 15.1296 17.1604 15.1043C17.1414 15.0972 16.9523 15.3015 16.7401 15.5583Z" fill="#C2C2C2"/>
</svg>
