<svg width="24" height="24" viewBox="0 0 24 24" fill="none" xmlns="http://www.w3.org/2000/svg">
<path fill-rule="evenodd" clip-rule="evenodd" d="M11.0156 2.10691C10.4792 2.22091 9.94416 2.43424 9.49177 2.7145C9.03122 2.99978 3.62006 7.46294 3.15933 7.93755C2.62481 8.48814 2.25234 9.20439 2.08992 9.9941C2.02552 10.3073 2.01563 10.8863 2.01563 14.3437C2.01563 18.7537 2.01075 18.6717 2.31849 19.435C2.79052 20.6055 3.72914 21.4759 4.92389 21.8511C5.26219 21.9574 5.32556 21.9609 6.89063 21.9609H8.50781L8.82295 21.8116C9.26081 21.6042 9.57277 21.298 9.78628 20.8662L9.96094 20.513L9.98742 18.4245C10.0121 16.4784 10.0205 16.316 10.1109 16.0446C10.1642 15.8844 10.261 15.6626 10.326 15.5518C10.496 15.2617 10.9253 14.8744 11.2381 14.7289C11.4759 14.6183 11.5659 14.6033 12 14.6025C12.4377 14.6016 12.522 14.6155 12.7619 14.7279C13.0752 14.8748 13.5045 15.2625 13.674 15.5518C13.739 15.6626 13.8358 15.8844 13.8891 16.0446C13.9795 16.316 13.9879 16.4784 14.0126 18.4245L14.0391 20.513L14.2137 20.8662C14.4272 21.298 14.7392 21.6042 15.177 21.8116L15.4922 21.9609H17.1094C18.6744 21.9609 18.7378 21.9574 19.0761 21.8511C20.4686 21.4139 21.4722 20.3418 21.873 18.8632C21.9559 18.5575 21.9609 18.2988 21.9609 14.3203V10.1015L21.8531 9.72653C21.636 8.97227 21.2228 8.28555 20.665 7.7523C20.458 7.55444 16.4086 4.192 15.1342 3.15977C14.4463 2.60256 13.7615 2.26999 12.9609 2.10419C12.4093 1.98996 11.5602 1.99113 11.0156 2.10691ZM11.5887 4.03652C11.2423 4.08803 10.8953 4.21263 10.5703 4.40214C10.2904 4.56541 4.83506 9.06053 4.58109 9.33724C4.32684 9.61422 4.0875 10.1317 4.03238 10.5234C3.97116 10.9588 3.97116 17.7287 4.03238 18.164C4.16105 19.0788 4.87903 19.835 5.74552 19.9684C5.92416 19.9959 6.50274 20.0125 7.03125 20.0053L7.99219 19.9922L8.01909 17.9765C8.03391 16.8679 8.06222 15.9082 8.08209 15.8437C8.10192 15.7793 8.16136 15.5894 8.21414 15.4218C9.08686 12.6514 12.3245 11.6673 14.5294 13.5022C15.0023 13.8957 15.5138 14.6355 15.7277 15.2354C15.9549 15.8724 15.9546 15.8679 15.9818 17.9765L16.0078 19.9922L16.9688 20.0053C17.4973 20.0125 18.0735 19.9962 18.2492 19.9692C19.146 19.8312 19.8458 19.0787 19.9715 18.1172C20.0032 17.8748 20.0153 16.4492 20.0056 14.0859C19.991 10.5162 19.9883 10.4233 19.893 10.1622C19.7759 9.84189 19.5231 9.41392 19.3602 9.26036C19.2952 9.19919 17.9766 8.10311 16.4297 6.8246C14.5638 5.28246 13.5127 4.44503 13.3067 4.33652C12.7885 4.06357 12.153 3.95256 11.5887 4.03652Z" fill="#525252"/>
</svg>
