<svg width="18" height="20" viewBox="0 0 18 20" fill="#fff" xmlns="http://www.w3.org/2000/svg">
<path d="M9 6.50002C8.67917 6.50002 8.40451 6.38578 8.17604 6.15731C7.94757 5.92884 7.83333 5.65419 7.83333 5.33335C7.83333 5.01252 7.94757 4.73787 8.17604 4.5094C8.40451 4.28092 8.67917 4.16669 9 4.16669C9.32083 4.16669 9.59549 4.28092 9.82396 4.5094C10.0524 4.73787 10.1667 5.01252 10.1667 5.33335C10.1667 5.65419 10.0524 5.92884 9.82396 6.15731C9.59549 6.38578 9.32083 6.50002 9 6.50002ZM7.25 15.8334V8.25002C6.66667 8.20141 6.07361 8.12849 5.47083 8.03127C4.86806 7.93405 4.29444 7.81252 3.75 7.66669L4.04167 6.50002C4.8 6.70419 5.60694 6.85245 6.4625 6.94481C7.31806 7.03717 8.16389 7.08335 9 7.08335C9.83611 7.08335 10.6819 7.03717 11.5375 6.94481C12.3931 6.85245 13.2 6.70419 13.9583 6.50002L14.25 7.66669C13.7056 7.81252 13.1319 7.93405 12.5292 8.03127C11.9264 8.12849 11.3333 8.20141 10.75 8.25002V15.8334H9.58333V12.3334H8.41667V15.8334H7.25Z" fill="#777777"/>
</svg>
