<svg width="24" height="24" viewBox="0 0 24 24" fill="none" xmlns="http://www.w3.org/2000/svg">
<path fill-rule="evenodd" clip-rule="evenodd" d="M11.2242 2.31528C9.72559 2.60187 8.51621 3.46705 7.83109 4.74256C7.40354 5.53859 7.29137 6.01109 7.29334 7.00775C7.29507 7.88276 7.34945 8.17606 7.6389 8.87136C7.94832 9.61461 8.64732 10.465 9.32256 10.9197C10.948 12.0144 13.0483 12.0146 14.6775 10.9202C15.3442 10.4723 16.0544 9.60814 16.3611 8.87136C16.6506 8.17606 16.7049 7.88276 16.7067 7.00775C16.7083 6.18176 16.6746 5.96412 16.4507 5.35442C16.0301 4.20926 15.0657 3.17642 13.9407 2.66628C13.1737 2.31851 12.0001 2.16687 11.2242 2.31528ZM11.3203 3.82512C10.2684 4.04159 9.33639 4.86181 8.94362 5.91683C8.75743 6.41698 8.71079 7.15522 8.83126 7.69662C9.09414 8.87806 10.0155 9.83169 11.2031 10.1515C11.6098 10.261 12.3865 10.2616 12.7969 10.1527C13.9768 9.83956 14.9061 8.87717 15.1689 7.6962C15.2861 7.169 15.2434 6.46869 15.0622 5.94753C14.524 4.40009 12.9272 3.49437 11.3203 3.82512ZM8.01198 13.3383C5.81162 13.7367 3.9857 15.4198 3.44612 17.5468C3.30559 18.1008 3.21953 18.8645 3.25857 19.2113C3.32523 19.8035 3.57732 20.3999 3.93939 20.822C4.19903 21.1246 4.73954 21.4749 5.1586 21.6121L5.50782 21.7265H12H18.4922L18.8414 21.6121C19.6619 21.3434 20.3111 20.6979 20.6087 19.8548C20.9541 18.8763 20.6215 17.1374 19.8617 15.9489C18.9651 14.5466 17.5772 13.619 15.9511 13.3355C15.3867 13.2371 8.5577 13.2395 8.01198 13.3383ZM8.15626 14.8369C7.29165 15.0143 6.53317 15.4422 5.90378 16.1076C5.58526 16.4443 5.40934 16.6988 5.18101 17.1529C4.80165 17.9076 4.64532 19.0445 4.85832 19.4999C4.97706 19.7538 5.20089 19.9869 5.45846 20.1248L5.64845 20.2265H12H18.3516L18.5416 20.1248C18.7993 19.9868 19.0231 19.7537 19.1415 19.4999C19.2204 19.3309 19.2388 19.2053 19.2345 18.8671C19.2134 17.213 18.1091 15.6566 16.5182 15.0388C15.8183 14.7671 15.7859 14.7651 11.9607 14.77C9.24128 14.7734 8.39303 14.7883 8.15626 14.8369Z" fill="#C2C2C2"/>
</svg>
