<svg width="24" height="24" viewBox="0 0 24 24" fill="none" xmlns="http://www.w3.org/2000/svg">
<path fill-rule="evenodd" clip-rule="evenodd" d="M5.16637 3.09464C4.2525 3.33408 3.504 4.01048 3.18192 4.88798C3.08053 5.16431 3.07397 5.25764 3.05798 6.65672L3.04106 8.13375L3.14958 8.29481C3.45276 8.74467 4.10648 8.76427 4.41426 8.33273C4.52086 8.1833 4.524 8.14809 4.54814 6.84375L4.5728 5.50781L4.69861 5.26697C4.7678 5.1345 4.91203 4.95108 5.01923 4.85934C5.35692 4.57031 5.49384 4.54688 6.84473 4.54688C8.01014 4.54688 8.05415 4.5435 8.25187 4.43892C8.48245 4.317 8.67187 4.01803 8.67187 3.77602C8.67187 3.52017 8.48606 3.22359 8.25178 3.10547C8.04984 3.00361 7.99898 3.00009 6.77522 3.00258C5.68415 3.00478 5.46033 3.01762 5.16637 3.09464ZM15.7482 3.10547C15.5139 3.22359 15.3281 3.52017 15.3281 3.77602C15.3281 4.01803 15.5175 4.317 15.7481 4.43892C15.9458 4.5435 15.9899 4.54688 17.1553 4.54688C18.5199 4.54688 18.6504 4.57022 18.9987 4.87673C19.1189 4.98258 19.2523 5.16291 19.3168 5.30681C19.4228 5.54334 19.429 5.61473 19.4522 6.86719C19.476 8.1472 19.4793 8.18348 19.5857 8.33273C19.892 8.76216 20.5472 8.74472 20.8475 8.29913C20.9511 8.14542 20.9531 8.11598 20.9531 6.77634C20.9531 5.28019 20.9295 5.09438 20.6726 4.57031C20.3141 3.83897 19.6389 3.30314 18.8083 3.0907C18.5013 3.01219 18.2863 3 17.2056 3C16.0043 3 15.9495 3.00398 15.7482 3.10547ZM2.40084 11.328C2.17697 11.4383 2.049 11.645 2.02495 11.9351C2.00789 12.1407 2.02519 12.219 2.12559 12.3903C2.35673 12.7848 1.40119 12.75 12.0078 12.75C21.1092 12.75 21.4526 12.7469 21.6101 12.6631C22.098 12.4035 22.098 11.5965 21.6101 11.3369C21.4526 11.2531 21.1102 11.25 12.0007 11.2511C3.3952 11.2521 2.541 11.2589 2.40084 11.328ZM3.54769 15.3945C3.3375 15.4713 3.20306 15.5839 3.1124 15.7593C3.01369 15.9502 3.01842 18.4782 3.11822 18.8691C3.3758 19.878 4.1542 20.644 5.19169 20.9093C5.49923 20.988 5.71148 20.9999 6.79266 20.999C8.21067 20.9978 8.33016 20.9738 8.53022 20.6501C8.77612 20.2522 8.65383 19.7736 8.25187 19.5611C8.05415 19.4565 8.01014 19.4531 6.84473 19.4531C5.49384 19.4531 5.35692 19.4297 5.01923 19.1407C4.91203 19.0489 4.7678 18.8655 4.69861 18.733L4.5728 18.4922L4.54814 17.1563C4.524 15.8519 4.52086 15.8167 4.41426 15.6673C4.21978 15.3945 3.8587 15.2809 3.54769 15.3945ZM20.0129 15.3711C19.8037 15.4371 19.6971 15.5112 19.5853 15.6679C19.4794 15.8164 19.476 15.8543 19.4522 17.1328C19.429 18.3853 19.4228 18.4567 19.3168 18.6932C19.2523 18.8371 19.1189 19.0174 18.9987 19.1233C18.6504 19.4298 18.5199 19.4531 17.1553 19.4531C15.9899 19.4531 15.9458 19.4565 15.7481 19.5611C15.3462 19.7736 15.2239 20.2522 15.4698 20.6501C15.6698 20.9738 15.7893 20.9978 17.2073 20.999C18.2885 20.9999 18.5008 20.988 18.8083 20.9093C19.6389 20.6969 20.3141 20.161 20.6726 19.4297C20.9295 18.9056 20.9531 18.7198 20.9531 17.2237C20.9531 15.884 20.9511 15.8546 20.8475 15.7009C20.6671 15.4332 20.2892 15.2839 20.0129 15.3711Z" fill="#7F7F7F"/>
</svg>
