<svg width="11" height="14" viewBox="0 0 11 14" fill="none" xmlns="http://www.w3.org/2000/svg">
<path d="M2.25 11.25C2.0375 11.25 1.85938 11.1781 1.71563 11.0344C1.57188 10.8906 1.5 10.7125 1.5 10.5C1.5 10.2875 1.57188 10.1094 1.71563 9.96562C1.85938 9.82187 2.0375 9.75 2.25 9.75C2.4625 9.75 2.64062 9.82187 2.78437 9.96562C2.92812 10.1094 3 10.2875 3 10.5C3 10.7125 2.92812 10.8906 2.78437 11.0344C2.64062 11.1781 2.4625 11.25 2.25 11.25ZM5.25 11.25C5.0375 11.25 4.85938 11.1781 4.71562 11.0344C4.57187 10.8906 4.5 10.7125 4.5 10.5C4.5 10.2875 4.57187 10.1094 4.71562 9.96562C4.85938 9.82187 5.0375 9.75 5.25 9.75C5.4625 9.75 5.64062 9.82187 5.78438 9.96562C5.92813 10.1094 6 10.2875 6 10.5C6 10.7125 5.92813 10.8906 5.78438 11.0344C5.64062 11.1781 5.4625 11.25 5.25 11.25ZM8.25 11.25C8.0375 11.25 7.85938 11.1781 7.71562 11.0344C7.57187 10.8906 7.5 10.7125 7.5 10.5C7.5 10.2875 7.57187 10.1094 7.71562 9.96562C7.85938 9.82187 8.0375 9.75 8.25 9.75C8.4625 9.75 8.64062 9.82187 8.78438 9.96562C8.92813 10.1094 9 10.2875 9 10.5C9 10.7125 8.92813 10.8906 8.78438 11.0344C8.64062 11.1781 8.4625 11.25 8.25 11.25ZM0 8.25V6.75C0 5.425 0.425 4.275 1.275 3.3C2.125 2.325 3.2 1.75 4.5 1.575V0H6V1.575C7.3 1.75 8.375 2.325 9.225 3.3C10.075 4.275 10.5 5.425 10.5 6.75V8.25H0ZM1.5 6.75H9C9 5.7125 8.63437 4.82812 7.90312 4.09688C7.17188 3.36563 6.2875 3 5.25 3C4.2125 3 3.32812 3.36563 2.59687 4.09688C1.86562 4.82812 1.5 5.7125 1.5 6.75ZM2.25 13.5C2.0375 13.5 1.85938 13.4281 1.71563 13.2844C1.57188 13.1406 1.5 12.9625 1.5 12.75C1.5 12.5375 1.57188 12.3594 1.71563 12.2156C1.85938 12.0719 2.0375 12 2.25 12C2.4625 12 2.64062 12.0719 2.78437 12.2156C2.92812 12.3594 3 12.5375 3 12.75C3 12.9625 2.92812 13.1406 2.78437 13.2844C2.64062 13.4281 2.4625 13.5 2.25 13.5ZM5.25 13.5C5.0375 13.5 4.85938 13.4281 4.71562 13.2844C4.57187 13.1406 4.5 12.9625 4.5 12.75C4.5 12.5375 4.57187 12.3594 4.71562 12.2156C4.85938 12.0719 5.0375 12 5.25 12C5.4625 12 5.64062 12.0719 5.78438 12.2156C5.92813 12.3594 6 12.5375 6 12.75C6 12.9625 5.92813 13.1406 5.78438 13.2844C5.64062 13.4281 5.4625 13.5 5.25 13.5ZM8.25 13.5C8.0375 13.5 7.85938 13.4281 7.71562 13.2844C7.57187 13.1406 7.5 12.9625 7.5 12.75C7.5 12.5375 7.57187 12.3594 7.71562 12.2156C7.85938 12.0719 8.0375 12 8.25 12C8.4625 12 8.64062 12.0719 8.78438 12.2156C8.92813 12.3594 9 12.5375 9 12.75C9 12.9625 8.92813 13.1406 8.78438 13.2844C8.64062 13.4281 8.4625 13.5 8.25 13.5Z" fill="#474747"/>
</svg>
