<svg width="16" height="16" viewBox="0 0 16 16" fill="none" xmlns="http://www.w3.org/2000/svg">
<path d="M8.63599 1.13333C8.59353 0.997945 8.50897 0.879642 8.39463 0.795628C8.28029 0.711615 8.14213 0.666273 8.00024 0.666199C7.85835 0.666124 7.72014 0.711321 7.60571 0.795215C7.49128 0.879109 7.4066 0.997323 7.36399 1.13266L5.90799 5.746L1.33399 5.74266C1.19139 5.74233 1.05245 5.78773 0.937554 5.87219C0.822662 5.95666 0.73788 6.07574 0.695661 6.21195C0.653441 6.34815 0.656008 6.49431 0.702985 6.62895C0.749962 6.76359 0.838873 6.87962 0.956661 6.95999L4.62199 9.46799L3.24399 13.8313C3.20241 13.9645 3.20368 14.1074 3.24761 14.2399C3.29154 14.3723 3.37593 14.4876 3.48887 14.5696C3.60181 14.6515 3.73762 14.696 3.87716 14.6966C4.0167 14.6973 4.15293 14.6542 4.26666 14.5733L7.99999 11.9027L11.7293 14.574C11.8431 14.6555 11.9796 14.6991 12.1195 14.6987C12.2595 14.6983 12.3957 14.6539 12.509 14.5717C12.6223 14.4896 12.7068 14.3739 12.7507 14.241C12.7945 14.1081 12.7955 13.9648 12.7533 13.8313L11.3753 9.46799L15.0433 6.95999C15.1611 6.87962 15.25 6.76359 15.297 6.62895C15.344 6.49431 15.3465 6.34815 15.3043 6.21195C15.2621 6.07574 15.1773 5.95666 15.0624 5.87219C14.9475 5.78773 14.8086 5.74233 14.666 5.74266L10.0887 5.746L8.63599 1.13333Z" fill="#9D9D9D"/>
</svg>
