<svg width="20" height="20" viewBox="0 0 20 20" fill="none" xmlns="http://www.w3.org/2000/svg">
<path d="M19.1667 8.09167C19.2079 6.89888 18.947 5.71502 18.4083 4.65C18.0428 4.213 17.5356 3.9181 16.975 3.81667C14.6563 3.6057 12.328 3.51947 10 3.55834C7.68055 3.51916 5.36065 3.60261 3.05 3.80834C2.59319 3.89144 2.17043 4.10571 1.83334 4.425C1.08334 5.11667 1 6.3 0.916668 7.3C0.79503 9.09795 0.79503 10.9021 0.916668 12.7C0.941088 13.2628 1.02489 13.8215 1.16667 14.3667C1.26715 14.7876 1.47044 15.177 1.75834 15.5C2.09773 15.8362 2.53032 16.0627 3 16.15C4.79655 16.3723 6.60684 16.4642 8.41667 16.425C11.3333 16.4667 13.8917 16.425 16.9167 16.1917C17.3975 16.1087 17.842 15.8821 18.1917 15.5417C18.4247 15.3081 18.5989 15.0225 18.7 14.7083C18.9977 13.7938 19.1441 12.8367 19.1333 11.875C19.1667 11.4083 19.1667 8.59167 19.1667 8.09167ZM8.11667 12.375V7.21667L13.05 9.80834C11.6667 10.575 9.84167 11.4417 8.11667 12.375Z" fill="#1A1C1C"/>
</svg>
