<svg width="8" height="12" viewBox="0 0 8 12" fill="none" xmlns="http://www.w3.org/2000/svg">
<path d="M3 11.3333V10H1.66667V8.66667H3V7.26667C2.12222 7.11111 1.40278 6.69167 0.841667 6.00833C0.280556 5.325 0 4.53333 0 3.63333C0 2.62222 0.358333 1.76389 1.075 1.05833C1.79167 0.352778 2.65556 0 3.66667 0C4.67778 0 5.54167 0.352778 6.25833 1.05833C6.975 1.76389 7.33333 2.62222 7.33333 3.63333C7.33333 4.53333 7.05278 5.325 6.49167 6.00833C5.93056 6.69167 5.21111 7.11111 4.33333 7.26667V8.66667H5.66667V10H4.33333V11.3333H3ZM3.66667 6C4.31111 6 4.86111 5.77222 5.31667 5.31667C5.77222 4.86111 6 4.31111 6 3.66667C6 3.02222 5.77222 2.47222 5.31667 2.01667C4.86111 1.56111 4.31111 1.33333 3.66667 1.33333C3.02222 1.33333 2.47222 1.56111 2.01667 2.01667C1.56111 2.47222 1.33333 3.02222 1.33333 3.66667C1.33333 4.31111 1.56111 4.86111 2.01667 5.31667C2.47222 5.77222 3.02222 6 3.66667 6Z" fill="#1A1C1C"/>
</svg>
