<svg width="24" height="24" viewBox="0 0 24 24" fill="none" xmlns="http://www.w3.org/2000/svg">
<g clip-path="url(#clip0_123_71)">
<path fill-rule="evenodd" clip-rule="evenodd" d="M4.05652 0.052214C2.86472 0.225839 1.70161 0.912557 0.954329 1.88371C0.499782 2.47439 0.157032 3.29643 0.0486102 4.0559C0.00989148 4.32693 -0.000186638 6.46035 0.0118602 11.8126C0.0270477 18.5636 0.0352977 19.2228 0.108001 19.5153C0.400782 20.693 0.872438 21.5507 1.66092 22.3392C2.43375 23.112 3.30605 23.5995 4.40625 23.8736C4.8023 23.9722 4.84908 23.9729 12.2306 23.9876C18.7396 24.0005 19.708 23.9934 20.0735 23.9304C21.0639 23.7595 21.9202 23.3185 22.6193 22.6194C23.0214 22.2173 23.2901 21.829 23.5589 21.2616C23.8348 20.6792 23.9464 20.1855 23.9996 19.3126C24.061 18.3059 24.0614 4.15748 24 4.1954C23.973 4.21209 23.953 4.16849 23.9528 4.0927C23.9516 3.62746 23.5619 2.61318 23.1525 2.00995C22.6249 1.23267 21.7154 0.553448 20.7819 0.239714C20.0501 -0.00623914 20.2703 -0.000332886 12.0056 0.00580774C7.7873 0.00894836 4.21022 0.0298546 4.05652 0.052214ZM4.12838 1.94789C3.43692 2.09784 2.76741 2.5515 2.36747 3.14109C1.3238 4.67976 2.04905 6.75848 3.84375 7.3724L4.14844 7.47665L12.0938 7.50145L20.0391 7.52624L20.4153 7.62712C21.8139 8.00221 22.8836 8.87371 23.51 10.1485C23.9891 11.1238 23.9684 10.9106 23.9991 15.1642C24.0195 17.9978 24.0262 17.1394 24.0274 11.5079C24.0282 7.46024 24.0172 4.56337 24.0028 5.07042L23.9766 5.99231L23.8359 6.19181C23.4215 6.77976 22.5675 6.72984 22.2341 6.0982C22.1335 5.90774 22.125 5.83448 22.1242 5.1607C22.1237 4.70273 22.0979 4.30949 22.0552 4.1077C21.8328 3.05812 20.94 2.16304 19.8984 1.94531C19.42 1.84532 4.59024 1.84771 4.12838 1.94789ZM4.36158 3.81103C4.27256 3.83953 4.12074 3.94185 4.02422 4.03837C3.58744 4.47515 3.70753 5.22365 4.26127 5.51601L4.46789 5.62509H12H19.5321L19.7387 5.51601C19.8524 5.45606 20.0086 5.31712 20.0859 5.20729C20.209 5.03264 20.2266 4.96757 20.2266 4.68759C20.2266 4.40746 20.209 4.34268 20.0859 4.16845C20.0086 4.05895 19.8609 3.92531 19.7578 3.87145L19.5703 3.77353L12.0469 3.76635C6.66375 3.76124 4.47741 3.77395 4.36158 3.81103ZM1.87664 13.5821C1.87842 19.0807 1.87688 19.0439 2.1278 19.7049C2.48672 20.6506 3.31903 21.4909 4.25902 21.8565C4.96303 22.1304 4.69599 22.1218 12.4453 22.1227C18.5206 22.1234 19.6186 22.1134 19.8984 22.0549C20.94 21.8371 21.8328 20.9421 22.0552 19.8925C22.1563 19.4152 22.1563 12.085 22.0552 11.6077C21.832 10.5547 20.9454 9.66806 19.8924 9.44493C19.6181 9.38685 18.4364 9.37659 11.9241 9.37589C3.52331 9.37499 3.89531 9.38704 3.07402 9.08985C2.85314 9.00993 2.50017 8.84104 2.28966 8.71448C2.07914 8.58796 1.89975 8.48446 1.89094 8.48446C1.88217 8.48446 1.87575 10.7784 1.87664 13.5821ZM18.7031 14.6503C18.4338 14.7338 18.1663 14.9555 18.0349 15.2039C17.8983 15.4619 17.8894 16.0217 18.018 16.2657C18.2157 16.6408 18.5438 16.8655 18.9552 16.9077C20.0459 17.0194 20.6748 15.7037 19.9007 14.9296C19.5802 14.6091 19.1551 14.5099 18.7031 14.6503Z" fill="#C2C2C2"/>
</g>
<defs>
<clipPath id="clip0_123_71">
<rect width="24" height="24" fill="white"/>
</clipPath>
</defs>
</svg>
