<svg width="11" height="10" viewBox="0 0 11 10" fill="none" xmlns="http://www.w3.org/2000/svg">
<path d="M2.21667 9.33333C1.925 9.33333 1.67708 9.23125 1.47292 9.02708C1.26875 8.82292 1.16667 8.575 1.16667 8.28333C1.16667 8.07917 1.225 7.88715 1.34167 7.70729C1.45833 7.52743 1.61389 7.39861 1.80833 7.32083L4.08333 6.41667V5.10417C3.55833 5.71667 2.94826 6.18576 2.25312 6.51146C1.55799 6.83715 0.806944 7 0 7V5.83333C0.661111 5.83333 1.26146 5.69722 1.80104 5.425C2.34063 5.15278 2.82917 4.76389 3.26667 4.25833L4.05417 3.325C4.17083 3.18889 4.30694 3.08681 4.4625 3.01875C4.61806 2.95069 4.78333 2.91667 4.95833 2.91667H5.54167C5.71667 2.91667 5.88194 2.95069 6.0375 3.01875C6.19306 3.08681 6.32917 3.18889 6.44583 3.325L7.23333 4.25833C7.67083 4.76389 8.15938 5.15278 8.69896 5.425C9.23854 5.69722 9.83889 5.83333 10.5 5.83333V7C9.69306 7 8.94201 6.83715 8.24687 6.51146C7.55174 6.18576 6.94167 5.71667 6.41667 5.10417V6.41667L8.69167 7.32083C8.88611 7.39861 9.04167 7.52743 9.15833 7.70729C9.275 7.88715 9.33333 8.07917 9.33333 8.28333C9.33333 8.575 9.23125 8.82292 9.02708 9.02708C8.82292 9.23125 8.575 9.33333 8.28333 9.33333H4.08333V9.04167C4.08333 8.78889 4.16597 8.57986 4.33125 8.41458C4.49653 8.24931 4.70556 8.16667 4.95833 8.16667H6.70833C6.79583 8.16667 6.86632 8.13993 6.91979 8.08646C6.97326 8.03299 7 7.9625 7 7.875C7 7.7875 6.97326 7.71701 6.91979 7.66354C6.86632 7.61007 6.79583 7.58333 6.70833 7.58333H4.95833C4.55 7.58333 4.20486 7.72431 3.92292 8.00625C3.64097 8.28819 3.5 8.63333 3.5 9.04167V9.33333H2.21667ZM5.25 2.33333C4.92917 2.33333 4.65451 2.2191 4.42604 1.99063C4.19757 1.76215 4.08333 1.4875 4.08333 1.16667C4.08333 0.845833 4.19757 0.571181 4.42604 0.342708C4.65451 0.114236 4.92917 0 5.25 0C5.57083 0 5.84549 0.114236 6.07396 0.342708C6.30243 0.571181 6.41667 0.845833 6.41667 1.16667C6.41667 1.4875 6.30243 1.76215 6.07396 1.99063C5.84549 2.2191 5.57083 2.33333 5.25 2.33333Z" fill="#777777"/>
</svg>
