<svg width="122" height="19" viewBox="0 0 122 19" fill="none" xmlns="http://www.w3.org/2000/svg">
<path fill-rule="evenodd" clip-rule="evenodd" d="M26.5898 11.895V17.5336L27.1414 18.1514L27.6929 18.7692H29.1628H30.6326V17.9478V17.1264H34.2038H37.7749V17.9478V18.7692H39.7963H41.8177L41.8134 14.378L41.809 9.98677L40.1591 8.15447L38.5091 6.32218L32.5494 6.28932L26.5898 6.25634V11.895ZM46.13 11.8912V17.5233L46.6903 18.1463L47.2503 18.7692H48.7117H50.1729V17.1264V15.4837H53.1213H56.0696L56.6924 16.1672C57.3142 16.8498 57.3152 16.8523 57.3152 17.8099V18.7692H59.3366H61.358L61.3542 16.9053L61.3503 15.0414L60.8095 14.4727L60.2687 13.9041L60.8134 13.8653L61.358 13.8264V11.6737C61.358 11.5526 61.3581 11.4382 61.3583 11.3299C61.3597 10.1761 61.3603 9.72186 61.1735 9.35058C61.0522 9.10954 60.8519 8.90345 60.5215 8.56357C60.4738 8.51441 60.4233 8.46246 60.3699 8.4072C60.1349 8.16395 59.5867 7.58103 59.1515 7.11196L58.3604 6.25899H52.2452H46.13V11.8912ZM66.6136 11.837V17.415L67.2304 18.0921L67.8474 18.7692H75.1813H82.5153V15.9716V13.1738L81.7684 12.307L81.0214 11.44H81.4315H81.8415V10.4422V9.44441L80.3504 7.8517L78.8593 6.25899H72.7365H66.6136V11.837ZM87.0972 11.8912V17.5233L87.6574 18.1463L88.2175 18.7692H95.204H102.19V14.1054V9.44163L101.294 8.45055C100.802 7.90541 100.14 7.18929 99.825 6.85923L99.2518 6.25899H93.1745H87.0972V11.8912ZM107.817 6.35288L106.772 6.39597V11.9337V17.4715L107.335 18.1203L107.898 18.7692H109.357H110.815V14.1352V9.50114L111.618 10.5654C112.059 11.1506 113.06 12.454 113.843 13.4618C114.625 14.4696 115.641 15.7775 116.099 16.3682C116.557 16.959 117.164 17.7408 117.449 18.1057L117.966 18.7692H119.983H122V13.0423V7.3154L121.518 6.7872L121.036 6.25899H119.498H117.961L117.925 10.8342L117.89 15.4095L116.084 13.0772C113.338 9.53147 112.792 8.82737 111.752 7.49105L110.794 6.25899L109.827 6.28439C109.296 6.29842 108.391 6.32925 107.817 6.35288ZM30.6326 11.6949V15.2351L34.1701 15.2015L37.7075 15.1677L37.7439 12.4702L37.7803 9.77258L37.0804 8.96359L36.3803 8.15447H33.5064H30.6326V11.6949ZM50.1729 10.8713V13.5882H53.744H57.3152V11.5484V9.5086L56.6984 8.83153L56.0814 8.15447H53.1272H50.1729V10.8713ZM70.7912 9.79722V11.44H74.295H77.7987V10.506C77.7987 9.57709 77.7952 9.56799 77.1632 8.86326L76.5278 8.15447H73.6594H70.7912V9.79722ZM91.14 12.5773V16.8737H94.6438H98.1475L98.1422 13.1775L98.1369 9.48131L97.5476 8.88107L96.9583 8.28084H94.0492H91.14V12.5773ZM70.7912 15.1046V16.8737H74.6992H78.6073V15.8483V14.823L77.9201 14.0792L77.233 13.3354H74.0121H70.7912V15.1046Z" fill="black"/>
<path fill-rule="evenodd" clip-rule="evenodd" d="M13.3488 0.759939C12.9971 1.17742 11.2705 3.18885 9.51201 5.22983C7.75349 7.27064 6.24739 9.03314 6.16522 9.14619C6.06707 9.28129 6.09456 9.45906 6.24516 9.66358C6.61876 10.1711 12.9658 17.5387 13.5819 18.1799L14.1481 18.7692L18.0228 18.7272L21.8975 18.6851L19.8069 16.1834C18.6571 14.8074 16.8999 12.7048 15.9018 11.5108L14.0874 9.33991L15.2368 7.9802C15.8689 7.23217 17.0292 5.85198 17.8151 4.91288C18.601 3.97377 19.753 2.60734 20.3751 1.87636C20.9971 1.14537 21.6038 0.424079 21.7234 0.27366C21.9291 0.0147265 21.7277 3.08243e-05 17.9644 0.000343546L13.9883 0.000811177L13.3488 0.759939Z" fill="#FCDC00"/>
<path fill-rule="evenodd" clip-rule="evenodd" d="M0 9.38167V18.7633H3.27725H6.5545V16.5103V14.2573L5.07574 12.5605C4.26234 11.6272 3.31865 10.5303 2.9783 10.1228L2.35978 9.38198L2.76136 8.87365C2.98214 8.59407 3.92598 7.49174 4.85864 6.42411L6.5545 4.48288V2.24146V2.86102e-05H3.27725H0V9.38167Z" fill="#FCDC00"/>
</svg>
